<?xml version="1.0" standalone="no"?>
<!DOCTYPE svg PUBLIC "-//W3C//DTD SVG 20010904//EN"
 "http://www.w3.org/TR/2001/REC-SVG-20010904/DTD/svg10.dtd">
<svg version="1.0" xmlns="http://www.w3.org/2000/svg"
 width="512.000000pt" height="512.000000pt" viewBox="0 0 512.000000 512.000000"
 preserveAspectRatio="xMidYMid meet">
<metadata>
Created by potrace 1.16, written by Peter Selinger 2001-2019
</metadata>
<g transform="translate(0.000000,512.000000) scale(0.100000,-0.100000)"
fill="#000000" stroke="none">
<path d="M1586 4751 c-72 -38 -360 -241 -486 -342 -115 -93 -292 -273 -382
-389 -297 -384 -501 -853 -622 -1435 -63 -300 -87 -517 -93 -846 -5 -230 -3
-292 11 -375 77 -455 403 -828 841 -963 134 -41 216 -53 365 -53 149 0 231 12
365 53 313 97 585 328 733 624 135 270 160 619 66 917 -95 299 -321 567 -600
710 -193 99 -342 133 -574 132 -161 0 -205 -6 -357 -50 l-21 -6 25 119 c99
472 297 963 621 1535 61 108 127 227 147 265 36 70 48 123 29 130 -6 2 -37
-10 -68 -26z"/>
<path d="M4266 4750 c-59 -31 -351 -235 -471 -329 -90 -70 -305 -285 -377
-376 -276 -352 -471 -769 -602 -1290 -135 -538 -177 -1192 -96 -1507 21 -82
80 -224 123 -295 192 -321 502 -534 866 -594 95 -16 311 -13 412 5 500 90 896
489 984 993 19 108 19 314 1 419 -70 394 -311 715 -670 889 -123 60 -215 89
-351 110 -162 26 -366 14 -510 -29 -27 -9 -51 -13 -54 -10 -9 9 38 220 85 381
121 418 282 784 569 1293 154 273 181 329 172 354 -9 22 -17 20 -81 -14z"/>
</g>
</svg>
